<svg xmlns="http://www.w3.org/2000/svg" viewBox="0 0 600 800" preserveAspectRatio="xMidYMid slice">
  <defs>
    <linearGradient id="b" x1="0" y1="0" x2="0" y2="1">
      <stop offset="0" stop-color="#e8e3da"/>
      <stop offset="1" stop-color="#c8c2b3"/>
    </linearGradient>
  </defs>
  <rect width="600" height="800" fill="url(#b)"/>
  <g transform="translate(300 380)">
    <ellipse cx="0" cy="290" rx="200" ry="14" fill="#000" opacity="0.1"/>
    <path d="M -175 -170 L -110 -200 Q -55 -185 0 -185 Q 55 -185 110 -200 L 175 -170 L 220 -100 Q 223 -80 203 -75 L 165 -90 Q 160 50 175 280 L -175 280 Q -160 50 -165 -90 L -203 -75 Q -223 -80 -220 -100 Z" fill="#fafafa"/>
    <path d="M -50 -200 Q 0 -185 50 -200 Q 45 -170 0 -168 Q -45 -170 -50 -200 Z" fill="#e0dbcf"/>
    <text x="0" y="-40" text-anchor="middle" font-family="serif" font-size="11" font-weight="700" fill="#0a0a0a" letter-spacing="2.5">ACR</text>
    <circle cx="22" cy="-43" r="1.4" fill="#c8341d"/>
  </g>
</svg>
