<svg xmlns="http://www.w3.org/2000/svg" viewBox="0 0 400 500" preserveAspectRatio="xMidYMid slice">
  <defs>
    <linearGradient id="b" x1="0" y1="0" x2="1" y2="1">
      <stop offset="0" stop-color="#1a1a1a"/>
      <stop offset="1" stop-color="#0a0a0a"/>
    </linearGradient>
    <radialGradient id="r" cx="0.5" cy="0.3" r="0.6">
      <stop offset="0" stop-color="#c8341d" stop-opacity="0.25"/>
      <stop offset="1" stop-color="transparent"/>
    </radialGradient>
  </defs>
  <rect width="400" height="500" fill="url(#b)"/>
  <rect width="400" height="500" fill="url(#r)"/>
  <g transform="translate(200 230)">
    <path d="M -100 -120 L -60 -140 Q -30 -130 0 -130 Q 30 -130 60 -140 L 100 -120 L 130 -75 Q 132 -60 119 -56 L 97 -67 Q 93 20 101 165 L -101 165 Q -93 20 -97 -67 L -119 -56 Q -132 -60 -130 -75 Z" fill="#2a2a2a"/>
    <path d="M -34 -140 Q 0 -130 34 -140 Q 30 -120 0 -118 Q -30 -120 -34 -140 Z" fill="#080808"/>
    <text x="0" y="-30" text-anchor="middle" font-family="serif" font-size="10" font-weight="700" fill="#c8341d" letter-spacing="2.5">ACR</text>
  </g>
</svg>
